HIERARCHY
ROOT hip
{
OFFSET -0.33 92.73 0.17
CHANNELS 6 Xposition Yposition Zposition Zrotation Xrotation Yrotation
JOINT abdomen
{
OFFSET 0 7.23 0
CHANNELS 6 Xposition Yposition Zposition Zrotation Xrotation Yrotation
JOINT chest
{
OFFSET 0 16.54 0
CHANNELS 6 Xposition Yposition Zposition Zrotation Xrotation Yrotation
JOINT neck
{
OFFSET 0 34.21 0
CHANNELS 6 Xposition Yposition Zposition Zrotation Xrotation Yrotation
JOINT head
{
OFFSET 0 6.29 0
CHANNELS 6 Xposition Yposition Zposition Zrotation Xrotation Yrotation
End Site
{
OFFSET 0 21.21 0
}
}
}
JOINT lCollar
{
OFFSET 4.06 26.61 -1.12
CHANNELS 6 Xposition Yposition Zposition Zrotation Xrotation Yrotation
JOINT lShldr
{
OFFSET 14.17 0 0
CHANNELS 6 Xposition Yposition Zposition Zrotation Xrotation Yrotation
JOINT lForeArm
{
OFFSET 26.12 0 0
CHANNELS 6 Xposition Yposition Zposition Zrotation Xrotation Yrotation
JOINT lHand
{
OFFSET 27.71 0 0
CHANNELS 6 Xposition Yposition Zposition Zrotation Xrotation Yrotation
JOINT lThumb1
{
OFFSET 2.29 -0.46 1.83
CHANNELS 6 Xposition Yposition Zposition Zrotation Xrotation Yrotation
JOINT lThumb2
{
OFFSET 5.29 0 0
CHANNELS 6 Xposition Yposition Zposition Zrotation Xrotation Yrotation
JOINT lThumb3
{
OFFSET 3.01 0 0
CHANNELS 6 Xposition Yposition Zposition Zrotation Xrotation Yrotation
End Site
{
OFFSET 2.62 0 0
}
}
}
}
JOINT lIndex1
{
OFFSET 9.37 0.29 2.59
CHANNELS 6 Xposition Yposition Zposition Zrotation Xrotation Yrotation
JOINT lIndex2
{
OFFSET 4.34 0 0
CHANNELS 6 Xposition Yposition Zposition Zrotation Xrotation Yrotation
JOINT lIndex3
{
OFFSET 2.16 0 0
CHANNELS 6 Xposition Yposition Zposition Zrotation Xrotation Yrotation
End Site
{
OFFSET 2.20 0 0
}
}
}
}
JOINT lMid1
{
OFFSET 9.47 0.83 0.29
CHANNELS 6 Xposition Yposition Zposition Zrotation Xrotation Yrotation
JOINT lMid2
{
OFFSET 4.77 0 0
CHANNELS 6 Xposition Yposition Zposition Zrotation Xrotation Yrotation
JOINT lMid3
{
OFFSET 2.87 0 0
CHANNELS 6 Xposition Yposition Zposition Zrotation Xrotation Yrotation
End Site
{
OFFSET 2.09 0 0
}
}
}
}
JOINT lRing1
{
OFFSET 8.65 1.01 -1.70
CHANNELS 6 Xposition Yposition Zposition Zrotation Xrotation Yrotation
JOINT lRing2
{
OFFSET 4.54 0 0
CHANNELS 6 Xposition Yposition Zposition Zrotation Xrotation Yrotation
JOINT lRing3
{
OFFSET 2.50 0 0
CHANNELS 6 Xposition Yposition Zposition Zrotation Xrotation Yrotation
End Site
{
OFFSET 2.20 0 0
}
}
}
}
JOINT lPinky1
{
OFFSET 7.69 0.66 -3.90
CHANNELS 6 Xposition Yposition Zposition Zrotation Xrotation Yrotation
JOINT lPinky2
{
OFFSET 3.21 0 0
CHANNELS 6 Xposition Yposition Zposition Zrotation Xrotation Yrotation
JOINT lPinky3
{
OFFSET 1.92 0 0
CHANNELS 6 Xposition Yposition Zposition Zrotation Xrotation Yrotation
End Site
{
OFFSET 1.78 0 0
}
}
}
}
}
}
}
}
JOINT rCollar
{
OFFSET -4.06 26.61 -1.12
CHANNELS 6 Xposition Yposition Zposition Zrotation Xrotation Yrotation
JOINT rShldr
{
OFFSET -14.17 0 0
CHANNELS 6 Xposition Yposition Zposition Zrotation Xrotation Yrotation
JOINT rForeArm
{
OFFSET -26.12 0 0
CHANNELS 6 Xposition Yposition Zposition Zrotation Xrotation Yrotation
JOINT rHand
{
OFFSET -27.71 0 0
CHANNELS 6 Xposition Yposition Zposition Zrotation Xrotation Yrotation
JOINT rThumb1
{
OFFSET -2.29 -0.46 1.83
CHANNELS 6 Xposition Yposition Zposition Zrotation Xrotation Yrotation
JOINT rThumb2
{
OFFSET -5.29 0 0
CHANNELS 6 Xposition Yposition Zposition Zrotation Xrotation Yrotation
JOINT rThumb3
{
OFFSET -3.01 0 0
CHANNELS 6 Xposition Yposition Zposition Zrotation Xrotation Yrotation
End Site
{
OFFSET -2.62 0 0
}
}
}
}
JOINT rIndex1
{
OFFSET -9.37 0.29 2.59
CHANNELS 6 Xposition Yposition Zposition Zrotation Xrotation Yrotation
JOINT rIndex2
{
OFFSET -4.34 0 0
CHANNELS 6 Xposition Yposition Zposition Zrotation Xrotation Yrotation
JOINT rIndex3
{
OFFSET -2.16 0 0
CHANNELS 6 Xposition Yposition Zposition Zrotation Xrotation Yrotation
End Site
{
OFFSET -2.20 0 0
}
}
}
}
JOINT rMid1
{
OFFSET -9.47 0.83 0.29
CHANNELS 6 Xposition Yposition Zposition Zrotation Xrotation Yrotation
JOINT rMid2
{
OFFSET -4.77 0 0
CHANNELS 6 Xposition Yposition Zposition Zrotation Xrotation Yrotation
JOINT rMid3
{
OFFSET -2.87 0 0
CHANNELS 6 Xposition Yposition Zposition Zrotation Xrotation Yrotation
End Site
{
OFFSET -2.09 0 0
}
}
}
}
JOINT rRing1
{
OFFSET -8.65 1.01 -1.70
CHANNELS 6 Xposition Yposition Zposition Zrotation Xrotation Yrotation
JOINT rRing2
{
OFFSET -4.54 0 0
CHANNELS 6 Xposition Yposition Zposition Zrotation Xrotation Yrotation
JOINT rRing3
{
OFFSET -2.50 0 0
CHANNELS 6 Xposition Yposition Zposition Zrotation Xrotation Yrotation
End Site
{
OFFSET -2.20 0 0
}
}
}
}
JOINT rPinky1
{
OFFSET -7.69 0.66 -3.90
CHANNELS 6 Xposition Yposition Zposition Zrotation Xrotation Yrotation
JOINT rPinky2
{
OFFSET -3.21 0 0
CHANNELS 6 Xposition Yposition Zposition Zrotation Xrotation Yrotation
JOINT rPinky3
{
OFFSET -1.92 0 0
CHANNELS 6 Xposition Yposition Zposition Zrotation Xrotation Yrotation
End Site
{
OFFSET -1.78 0 0
}
}
}
}
}
}
}
}
}
}
JOINT lThigh
{
OFFSET 8.73 -0 0
CHANNELS 6 Xposition Yposition Zposition Zrotation Xrotation Yrotation
JOINT lShin
{
OFFSET 0 -46.66 0
CHANNELS 6 Xposition Yposition Zposition Zrotation Xrotation Yrotation
JOINT lFoot
{
OFFSET 0 -40.14 0
CHANNELS 6 Xposition Yposition Zposition Zrotation Xrotation Yrotation
JOINT lToes
{
OFFSET 0 -8.88 14.22
CHANNELS 6 Xposition Yposition Zposition Zrotation Xrotation Yrotation
End Site
{
OFFSET 0 0 6.29
}
}
}
}
}
JOINT rThigh
{
OFFSET -8.73 0 -0
CHANNELS 6 Xposition Yposition Zposition Zrotation Xrotation Yrotation
JOINT rShin
{
OFFSET 0 -46.66 0
CHANNELS 6 Xposition Yposition Zposition Zrotation Xrotation Yrotation
JOINT rFoot
{
OFFSET 0 -40.14 0
CHANNELS 6 Xposition Yposition Zposition Zrotation Xrotation Yrotation
JOINT rToes
{
OFFSET 0 -8.88 14.22
CHANNELS 6 Xposition Yposition Zposition Zrotation Xrotation Yrotation
End Site
{
OFFSET 0 0 6.29
}
}
}
}
}
}
MOTION
Frames: 6
Frame Time: 0.03
-2.03 93.08 6.09 -1.76 -2.83 2.58 0 7.23 0 2.01 1.62 1.76 0 16.54 0 2.63 5.14 3.44 0 34.21 0 -0.01 19.33 -0.94 0 6.29 0 -0.67 -15.30 -6.16 4.06 26.61 -1.12 -1.78 -1.85 1.02 14.17 0 0 -73.64 32.13 8.97 26.12 0 0 -0.42 -3.31 -29.86 27.71 0 0 -0.42 -24.98 2.12 2.29 -0.46 1.83 51.35 66.73 -67.83 5.29 0 0 -6.83 2.66 2.96 3.01 0 0 12.48 0 0 9.37 0.29 2.59 -9.35 -0.92 -1.26 4.34 0 0 -12.73 0 2.00 2.16 0 0 -2.16 0 0 9.47 0.83 0.29 -9.58 -4.15 -0.19 4.77 0 0 -14.77 -0.18 1.51 2.87 0 0 3.95 0.07 0.39 8.65 1.01 -1.70 -10.46 -3.08 0.17 4.54 0 0 -46.06 1.26 -2.43 2.50 0 0 6.76 0 0 7.69 0.66 -3.90 -16.17 -12.82 2.87 3.21 0 0 -55.51 -0.55 3.85 1.92 0 0 4.41 0 0 -4.06 26.61 -1.12 0.04 -0.08 -2.26 -14.17 0 0 71.51 22.10 -2.46 -26.12 0 0 0.35 -1.02 24.61 -27.71 0 0 -2.04 -21.93 -2.87 -2.29 -0.46 1.83 -46.38 62.83 69.08 -5.29 0 0 7.60 2.62 -3.80 -3.01 0 0 -12.48 0 0 -9.37 0.29 2.59 12.46 -2.65 -1.17 -4.34 0 0 13.79 -0.04 -2.42 -2.16 0 0 2.16 0 0 -9.47 0.83 0.29 25.40 -5.64 -1.29 -4.77 0 0 1.05 -12.58 -0.79 -2.87 0 0 -3.95 0.07 -0.39 -8.65 1.01 -1.70 27.68 0.73 -2.43 -4.54 0 0 1.33 0.02 0.57 -2.50 0 0 -6.76 0 0 -7.69 0.66 -3.90 32.95 -12.12 -4.62 -3.21 0 0 19.50 -0.62 2.03 -1.92 0 0 -4.41 0 0 8.73 -0 0 7.95 -26.88 14.39 0 -46.66 0 12.15 64.01 -6.97 0 -40.14 0 -1.79 -4.97 12.41 0 -8.88 14.22 0 0 0 -8.73 0 -0 2.96 -7.70 -13.73 0 -46.66 0 -3.64 35.86 0.43 0 -40.14 0 -0.49 -25.50 -8.85 0 -8.88 14.22 0 0 -0 
-1.97 93.33 5.66 -1.21 -2.61 1.76 0 7.23 0 1.52 1.58 2.32 0 16.54 0 1.93 5.07 4.53 0 34.21 0 -0.15 19.57 -1.01 0 6.29 0 -0.35 -15.06 -6.67 4.06 26.61 -1.12 -1.78 -1.83 1.54 14.17 0 0 -74.24 31.76 12.63 26.12 0 0 -0.43 -3.31 -30.47 27.71 0 0 -1.71 -26.80 2.11 2.29 -0.46 1.83 51.16 66.46 -67.93 5.29 0 0 -6.83 2.66 2.96 3.01 0 0 12.48 0 0 9.37 0.29 2.59 -9.89 -0.91 -1.20 4.34 0 0 -13.27 -0.01 2.06 2.16 0 0 -2.16 0 0 9.47 0.83 0.29 -10.13 -4.15 -0.19 4.77 0 0 -15.32 -0.19 1.54 2.87 0 0 3.95 0.07 0.39 8.65 1.01 -1.70 -11.00 -3.08 0.12 4.54 0 0 -46.61 1.28 -2.45 2.50 0 0 6.76 0 0 7.69 0.66 -3.90 -16.73 -12.85 2.82 3.21 0 0 -56.05 -0.59 3.91 1.92 0 0 4.41 0 0 -4.06 26.61 -1.12 0.18 -0.17 -1.63 -14.17 0 0 70.51 22.54 -1.91 -26.12 0 0 0.39 -1.00 26.96 -27.71 0 0 -2.55 -23.64 -1.85 -2.29 -0.46 1.83 -46.38 62.83 69.08 -5.29 0 0 7.60 2.62 -3.80 -3.01 0 0 -12.48 0 0 -9.37 0.29 2.59 13.92 -2.68 -1.31 -4.34 0 0 15.25 -0.10 -2.61 -2.16 0 0 2.16 0 0 -9.47 0.83 0.29 26.87 -5.68 -1.28 -4.77 0 0 2.52 -13.02 -0.93 -2.87 0 0 -3.95 0.07 -0.39 -8.65 1.01 -1.70 28.38 0.70 -2.39 -4.54 0 0 2.03 0.03 0.62 -2.50 0 0 -6.76 0 0 -7.69 0.66 -3.90 32.72 -12.10 -4.66 -3.21 0 0 19.27 -0.62 2.05 -1.92 0 0 -4.41 0 0 8.73 -0 0 6.50 -28.73 14.19 0 -46.66 0 9.03 56.50 -4.42 0 -40.14 0 -2.15 -6.52 15.39 0 -8.88 14.22 0 0 -0 -8.73 0 -0 2.32 -5.28 -14.11 0 -46.66 0 -3.37 33.97 0.40 0 -40.14 0 -0.39 -25.82 -7.73 0 -8.88 14.22 0 0 0 
-1.90 93.49 5.16 -0.83 -2.25 1.07 0 7.23 0 1.07 1.51 2.78 0 16.54 0 1.36 4.93 5.42 0 34.21 0 -0.24 19.64 -1.09 0 6.29 0 -0.15 -15.06 -7.06 4.06 26.61 -1.12 -1.81 -1.82 1.92 14.17 0 0 -75.02 31.47 16.03 26.12 0 0 -0.42 -3.32 -30.29 27.71 0 0 -2.90 -27.65 1.25 2.29 -0.46 1.83 50.83 66.11 -68.02 5.29 0 0 -6.83 2.66 2.96 3.01 0 0 12.48 0 0 9.37 0.29 2.59 -10.78 -0.89 -1.11 4.34 0 0 -14.16 -0.04 2.17 2.16 0 0 -2.16 0 0 9.47 0.83 0.29 -11.02 -4.15 -0.20 4.77 0 0 -16.21 -0.22 1.60 2.87 0 0 3.95 0.07 0.39 8.65 1.01 -1.70 -11.90 -3.08 0.04 4.54 0 0 -47.50 1.32 -2.47 2.50 0 0 6.76 0 0 7.69 0.66 -3.90 -17.64 -12.9 2.73 3.21 0 0 -56.94 -0.65 4.01 1.92 0 0 4.41 0 0 -4.06 26.61 -1.12 0.29 -0.26 -1.06 -14.17 0 0 69.53 23.00 -1.39 -26.12 0 0 0.42 -0.99 29.23 -27.71 0 0 -3.40 -24.93 -0.95 -2.29 -0.46 1.83 -46.38 62.83 69.08 -5.29 0 0 7.60 2.62 -3.80 -3.01 0 0 -12.48 0 0 -9.37 0.29 2.59 15.58 -2.72 -1.46 -4.34 0 0 16.91 -0.18 -2.84 -2.16 0 0 2.16 0 0 -9.47 0.83 0.29 28.55 -5.71 -1.27 -4.77 0 0 4.17 -13.53 -1.10 -2.87 0 0 -3.95 0.07 -0.39 -8.65 1.01 -1.70 29.52 0.65 -2.33 -4.54 0 0 3.18 0.04 0.71 -2.50 0 0 -6.76 0 0 -7.69 0.66 -3.90 32.90 -12.12 -4.63 -3.21 0 0 19.45 -0.62 2.04 -1.92 0 0 -4.41 0 0 8.73 -0 0 5.16 -29.78 13.66 0 -46.66 0 6.49 47.02 -2.54 0 -40.14 0 -1.57 -6.60 17.17 0 -8.88 14.22 0 0 0 -8.73 0 -0 1.88 -3.03 -14.36 0 -46.66 0 -3.09 31.96 0.43 0 -40.14 0 -0.26 -26.04 -6.92 0 -8.88 14.22 0 0 0 
-1.84 93.64 4.60 -0.78 -1.83 0.49 0 7.23 0 0.74 1.41 3.12 0 16.54 0 1.02 4.72 6.11 0 34.21 0 -0.25 19.57 -1.17 0 6.29 0 -0.09 -15.36 -7.33 4.06 26.61 -1.12 -1.85 -1.82 2.21 14.17 0 0 -76.04 31.11 18.55 26.12 0 0 -0.41 -3.34 -29.02 27.71 0 0 -3.53 -27.49 -0.13 2.29 -0.46 1.83 50.48 65.58 -68.19 5.29 0 0 -6.83 2.66 2.96 3.01 0 0 12.48 0 0 9.37 0.29 2.59 -11.93 -0.87 -0.99 4.34 0 0 -15.31 -0.08 2.30 2.16 0 0 -2.16 0 0 9.47 0.83 0.29 -12.19 -4.15 -0.20 4.77 0 0 -17.37 -0.25 1.68 2.87 0 0 3.95 0.07 0.39 8.65 1.01 -1.70 -13.06 -3.08 -0.07 4.54 0 0 -48.66 1.37 -2.50 2.50 0 0 6.76 0 0 7.69 0.66 -3.90 -18.82 -12.95 2.61 3.21 0 0 -58.09 -0.73 4.13 1.92 0 0 4.41 0 0 -4.06 26.61 -1.12 0.35 -0.34 -0.50 -14.17 0 0 68.57 23.37 -0.95 -26.12 0 0 0.44 -0.97 31.36 -27.71 0 0 -4.08 -25.48 0.15 -2.29 -0.46 1.83 -46.38 62.83 69.08 -5.29 0 0 7.60 2.62 -3.80 -3.01 0 0 -12.48 0 0 -9.37 0.29 2.59 17.33 -2.77 -1.63 -4.34 0 0 18.65 -0.27 -3.07 -2.16 0 0 2.16 0 0 -9.47 0.83 0.29 30.31 -5.75 -1.25 -4.77 0 0 5.90 -14.08 -1.27 -2.87 0 0 -3.95 0.07 -0.39 -8.65 1.01 -1.70 30.98 0.59 -2.24 -4.54 0 0 4.64 0.06 0.81 -2.50 0 0 -6.76 0 0 -7.69 0.66 -3.90 33.61 -12.18 -4.53 -3.21 0 0 20.14 -0.59 2.00 -1.92 0 0 -4.41 0 0 8.73 -0 0 4.28 -30.04 13.01 0 -46.66 0 4.49 35.99 -1.28 0 -40.14 0 -1.32 -5.92 17.06 0 -8.88 14.22 0 0 0 -8.73 0 -0 1.87 -0.70 -14.3 0 -46.66 0 -2.76 29.46 0.37 0 -40.14 0 -0.24 -25.88 -6.56 0 -8.88 14.22 0 0 -0 
-1.80 93.78 4.07 -0.99 -1.31 -0.06 0 7.23 0 0.53 1.28 3.38 0 16.54 0 0.88 4.45 6.65 0 34.21 0 -0.22 19.42 -1.21 0 6.29 0 -0.07 -15.62 -7.43 4.06 26.61 -1.12 -1.91 -1.82 2.49 14.17 0 0 -77.20 30.49 20.33 26.12 0 0 -0.38 -3.36 -27.39 27.71 0 0 -3.41 -26.62 -1.03 2.29 -0.46 1.83 50.37 65.05 -68.43 5.29 0 0 -6.83 2.66 2.96 3.01 0 0 12.48 0 0 9.37 0.29 2.59 -13.27 -0.84 -0.85 4.34 0 0 -16.65 -0.14 2.45 2.16 0 0 -2.16 0 0 9.47 0.83 0.29 -13.53 -4.14 -0.20 4.77 0 0 -18.71 -0.29 1.76 2.87 0 0 3.95 0.07 0.39 8.65 1.01 -1.70 -14.41 -3.07 -0.20 4.54 0 0 -50 1.43 -2.54 2.50 0 0 6.76 0 0 7.69 0.66 -3.90 -20.19 -13.01 2.47 3.21 0 0 -59.42 -0.83 4.26 1.92 0 0 4.41 0 0 -4.06 26.61 -1.12 0.39 -0.41 0.02 -14.17 0 0 67.65 23.75 -0.41 -26.12 0 0 0.46 -0.96 32.87 -27.71 0 0 -4.34 -25.59 1.72 -2.29 -0.46 1.83 -46.38 62.83 69.08 -5.29 0 0 7.60 2.62 -3.80 -3.01 0 0 -12.48 0 0 -9.37 0.29 2.59 19.05 -2.82 -1.79 -4.34 0 0 20.37 -0.36 -3.30 -2.16 0 0 2.16 0 0 -9.47 0.83 0.29 32.05 -5.79 -1.23 -4.77 0 0 7.60 -14.62 -1.44 -2.87 0 0 -3.95 0.07 -0.39 -8.65 1.01 -1.70 32.65 0.53 -2.13 -4.54 0 0 6.31 0.09 0.93 -2.50 0 0 -6.76 0 0 -7.69 0.66 -3.90 34.77 -12.27 -4.36 -3.21 0 0 21.28 -0.56 1.94 -1.92 0 0 -4.41 0 0 8.73 -0 0 3.88 -29.62 11.94 0 -46.66 0 2.89 24.16 -0.45 0 -40.14 0 -2.81 -5.55 16.06 0 -8.88 14.22 0 0 -0 -8.73 0 -0 2.23 1.73 -13.93 0 -46.66 0 -2.37 26.44 0.24 0 -40.14 0 -0.45 -25.32 -6.59 0 -8.88 14.22 0 0 0 
-1.76 93.63 3.66 -1.30 -0.77 -0.66 0 7.23 0 0.38 1.12 3.57 0 16.54 0 0.80 4.14 7.09 0 34.21 0 -0.20 19.25 -1.22 0 6.29 0 -0.02 -15.98 -7.38 4.06 26.61 -1.12 -1.95 -1.80 2.81 14.17 0 0 -78.39 29.71 21.98 26.12 0 0 -0.36 -3.38 -26.26 27.71 0 0 -2.96 -25.92 -1.16 2.29 -0.46 1.83 50.69 64.73 -68.68 5.29 0 0 -6.83 2.66 2.96 3.01 0 0 12.48 0 0 9.37 0.29 2.59 -14.71 -0.82 -0.70 4.34 0 0 -18.09 -0.20 2.61 2.16 0 0 -2.16 0 0 9.47 0.83 0.29 -14.98 -4.14 -0.21 4.77 0 0 -20.16 -0.34 1.85 2.87 0 0 3.95 0.07 0.39 8.65 1.01 -1.70 -15.86 -3.07 -0.35 4.54 0 0 -51.45 1.49 -2.57 2.50 0 0 6.76 0 0 7.69 0.66 -3.90 -21.66 -13.07 2.31 3.21 0 0 -60.86 -0.94 4.41 1.92 0 0 4.41 0 0 -4.06 26.61 -1.12 0.43 -0.48 0.46 -14.17 0 0 67.08 24.07 -0.10 -26.12 0 0 0.47 -0.95 34.06 -27.71 0 0 -4.50 -25.52 3.39 -2.29 -0.46 1.83 -46.38 62.83 69.08 -5.29 0 0 7.60 2.62 -3.80 -3.01 0 0 -12.48 0 0 -9.37 0.29 2.59 20.63 -2.87 -1.93 -4.34 0 0 21.95 -0.45 -3.50 -2.16 0 0 2.16 0 0 -9.47 0.83 0.29 33.65 -5.82 -1.21 -4.77 0 0 9.16 -15.12 -1.59 -2.87 0 0 -3.95 0.07 -0.39 -8.65 1.01 -1.70 34.41 0.46 -2.02 -4.54 0 0 8.07 0.12 1.06 -2.50 0 0 -6.76 0 0 -7.69 0.66 -3.90 36.26 -12.38 -4.14 -3.21 0 0 22.74 -0.51 1.87 -1.92 0 0 -4.41 0 0 8.73 -0 0 3.95 -29.41 10.12 0 -46.66 0 1.75 14.60 0.05 0 -40.14 0 -5.95 -6.28 16.62 0 -8.88 14.22 0 0 -0 -8.73 0 -0 2.65 3.78 -13.33 0 -46.66 0 -2.10 24.37 0.03 0 -40.14 0 -0.70 -25.17 -6.72 0 -8.88 14.22 0 0 0 
